<?xml version="1.0" encoding="utf-8"?>
<?xml-stylesheet type="text/css" href="../css/Map.css"?>

<!-- Generator: Adobe Illustrator 22.0.1, SVG Export Plug-In . SVG Version: 6.00 Build 0)  -->
<svg version="1.1" id="Слой_1" xmlns="http://www.w3.org/2000/svg" xmlns:xlink="http://www.w3.org/1999/xlink" x="0px" y="0px"
	 viewBox="0 0 1125 846" style="enable-background:new 0 0 1125 846;" xml:space="preserve">
<path id="Entrance"  class="room" pointer-events="none" d="M425.5,173.5V0.5h300v173h-10v-163h-280v163H425.5z"/>
<g id="Livingroom" class="room">
	<path pointer-events="none" class="room" d="M470.5,570.5H0.5v-400h470v10h-460v380h460V570.5z"/>
	<rect x="465.5" y="170.5" pointer-events="none" class="room" width="10" height="122"/>
	<rect x="465.5" y="450.5" pointer-events="none" class="room" width="10" height="120"/>
</g>
<g id="WC" class="room">
	<path pointer-events="none" class="room" d="M475.5,705.5v140h-110v-140h10v130h90v-130H475.5z"/>
	<rect x="365.5" y="698.5" pointer-events="none" class="room" width="15" height="10"/>
	<rect x="460.5" y="698.5" pointer-events="none" class="room" width="15" height="10"/>
</g>
<g id="Kitchen" class="room">
	<path pointer-events="none" class="room" d="M365.5,845.5H0.5v-275h365v10h-355v255h355V845.5z"/>
	<rect x="355.5" y="695.5" pointer-events="none" class="room" width="10" height="150"/>
	<rect x="355.5" y="570.5" pointer-events="none" class="room" width="10" height="45"/>
</g>
<g id="Bathroom" class="room">
	<path pointer-events="none" class="room" d="M655.5,705.5v140h-180v-140h10v130h160v-130H655.5z"/>
	<rect x="610.5" y="698.5" pointer-events="none" class="room" width="45" height="10"/>
	<rect x="475.5" y="698" pointer-events="none" class="room" width="55" height="10"/>
</g>
<g id="Secondbedroom" class="room">
	<path pointer-events="none" class="room" d="M663.5,575.5h460v270h-460v-10h450v-250h-450V575.5z"/>
	<rect id="FUCK" x="656.5" y="695.5" pointer-events="none" class="room" width="10" height="150"/>
	<rect x="656.5" y="575.5" pointer-events="none" class="room" width="10" height="40"/>
</g>
<g id="Firstbedroom" class="room">
	<rect x="717.5" y="174" pointer-events="none" class="room" width="10" height="155"/>
	<rect x="718" y="419.5" pointer-events="none" class="room" width="10" height="155"/>
	<rect x="717.5" y="173.5" pointer-events="none" class="room" width="210" height="10"/>
	<rect x="1042.5" y="173.5" pointer-events="none" class="room" width="80" height="10"/>
	<rect x="723" y="564.5" pointer-events="none" class="room" width="400" height="10"/>
	<rect x="1113" y="173.5" pointer-events="none" class="room" width="10" height="400"/>
</g>
<g id="Furniture">
	<rect x="473" y="291.5" pointer-events="none" class="st3" width="5" height="160"/>
	<path pointer-events="none" class="st4" d="M478,371.5h-5 M473,371.5c-44.2,0-80-35.8-80-80h80 M473,371.5c-44.2,0-80,35.8-80,80
		h80"/>
	<rect x="720.1" y="327.4" pointer-events="none" class="st3" width="5" height="94.1"/>
	<path pointer-events="none" class="st4" d="M725.1,421.6c52,0,94.1-42.1,94.1-94.1h-94.1"/>
	<rect x="659" y="615.5" pointer-events="none" class="st3" width="5" height="80"/>
	<path pointer-events="none" class="st4" d="M664,695.5c44.2,0,80-35.8,80-80h-80"/>
	<rect x="530.5" y="698" pointer-events="none" class="st3" width="79.3" height="5"/>
	<path pointer-events="none" class="st4" d="M530.5,698c0-43.8,35.5-79.3,79.3-79.3V698"/>
	<rect x="380.5" y="698" pointer-events="none" class="st3" width="80" height="5"/>
	<path pointer-events="none" class="st4" d="M380.5,698c0-44.2,35.8-80,80-80v80"/>
	<rect x="360.5" y="615.5" pointer-events="none" class="st3" width="5" height="82"/>
	<path pointer-events="none" class="st4" d="M360.5,697.5c-45.3,0-82-36.7-82-82h82"/>
	<path pointer-events="none" class="st5" d="M397.1,223.5l12.6-14.1c2.1-2.4,5.2-3.4,7.9-2.7c7.5,4,14,9.3,19.3,15.9
		c0.2,2.4-0.9,5-3,6.8l-16.4,11.1c-2.1,1.6-5.3,1.2-7.4-1l-11.8-9.7C396.8,228,396.2,225.5,397.1,223.5z"/>
	<path pointer-events="none" class="st5" d="M394.3,226.8c-0.1-0.4,0.1-0.9,0.4-1.4s0.9-0.7,1.3-0.6c0.5,0,0.8,0.3,0.9,0.7
		c4.5,6.9,10.8,12.2,18.6,15.3c0.1,0.4,0,0.9-0.3,1.3c-0.3,0.4-0.7,0.8-1.1,0.9C405.7,240,398.9,234.4,394.3,226.8"/>
	<path pointer-events="none" class="st5" d="M465.5,180.5v110h-34.7v-44l-43.3-36.7h-52v-29.3H465.5z"/>
	<rect x="208.8" y="540.5" pointer-events="none" class="st3" width="173.3" height="10"/>
	<path pointer-events="none" class="st3" d="M391.5,560.5h-12c-2.2,0-4-1.8-4-4v-72c0-2.2,1.8-4,4-4h12c2.2,0,4,1.8,4,4v72
		C395.5,558.7,393.7,560.5,391.5,560.5z"/>
	<path pointer-events="none" class="st3" d="M372.5,560.5h-154c-1.7,0-3-1.3-3-3v-9c0-1.7,1.3-3,3-3h154c1.7,0,3,1.3,3,3v9
		C375.5,559.2,374.2,560.5,372.5,560.5z"/>
	<path pointer-events="none" class="st3" d="M372.3,545.5h-73.5c-1.8,0-3.3-1.5-3.3-3.3v-58.5c0-1.8,1.5-3.3,3.3-3.3h73.5
		c1.8,0,3.3,1.5,3.3,3.3v58.5C375.5,544,374,545.5,372.3,545.5z"/>
	<path pointer-events="none" class="st3" d="M292.3,545.5h-73.5c-1.8,0-3.3-1.5-3.3-3.3v-58.5c0-1.8,1.5-3.3,3.3-3.3h73.5
		c1.8,0,3.3,1.5,3.3,3.3v58.5C295.5,544,294,545.5,292.3,545.5z"/>
	<path pointer-events="none" class="st3" d="M211.5,560.5h-12c-2.2,0-4-1.8-4-4v-72c0-2.2,1.8-4,4-4h12c2.2,0,4,1.8,4,4v72
		C215.5,558.7,213.7,560.5,211.5,560.5z"/>
	
		<rect x="418" y="188" pointer-events="none" transform="matrix(0.766 -0.6428 0.6428 0.766 -31.8122 328.5968)" class="st3" width="35" height="40"/>
	
		<rect x="438" y="183.3" pointer-events="none" transform="matrix(0.766 -0.6428 0.6428 0.766 -25.592 332.188)" class="st6" width="11" height="36"/>
	
		<rect x="425.6" y="192.6" pointer-events="none" transform="matrix(0.766 -0.6428 0.6428 0.766 -34.626 326.9722)" class="st6" width="12.5" height="37"/>
	
		<rect x="422.4" y="213.3" pointer-events="none" transform="matrix(0.766 -0.6428 0.6428 0.766 -40.4019 323.6375)" class="st6" width="4" height="8"/>
	<path pointer-events="none" class="st4" d="M425.3,190.4l25.7,30.6 M422.8,194.5l23.8,28.3 M420.9,196.1l23.8,28.3 M419,197.7
		l23.8,28.3 M425.1,208.9l-1.9,1.6 M432.8,218.1l-1.9,1.6 M417.1,199.3l23.8,28.3"/>
	<path pointer-events="none" class="st5" d="M125.5,451.5v88.8c-2.6,10.1-11.8,17.2-22.2,17.2c-10.5,0-19.6-7.1-22.2-17.2
		c-6.9-20.7-23.5-36.8-44.4-42.9c-5.5-1.9-9.8-8.1-11.1-16.3v-29.6H125.5z"/>
	<rect x="25.5" y="451.5" pointer-events="none" class="st6" width="100" height="8.9"/>
	<polygon pointer-events="none" class="st6" points="125.5,557.5 125.5,557.5 125.5,557.5 	"/>
	<path pointer-events="none" class="st4" d="M123.3,460.4v-8.9 M118.8,460.4v-8.9 M114.4,460.4v-8.9 M109.9,460.4v-8.9 M105.5,460.4
		v-8.9 M101.1,460.4v-8.9 M96.6,460.4v-8.9 M92.2,460.4v-8.9 M87.7,460.4v-8.9 M121.1,460.4v-8.9 M116.6,460.4v-8.9 M112.2,460.4
		v-8.9 M107.7,460.4v-8.9 M103.3,460.4v-8.9 M98.8,460.4v-8.9 M94.4,460.4v-8.9 M89.9,460.4v-8.9 M85.5,460.4v-8.9 M83.3,460.4v-8.9
		 M78.8,460.4v-8.9 M74.4,460.4v-8.9 M69.9,460.4v-8.9 M65.5,460.4v-8.9 M61.1,460.4v-8.9 M56.6,460.4v-8.9 M52.2,460.4v-8.9
		 M47.7,460.4v-8.9 M81.1,460.4v-8.9 M76.6,460.4v-8.9 M72.2,460.4v-8.9 M67.7,460.4v-8.9 M63.3,460.4v-8.9 M58.8,460.4v-8.9
		 M54.4,460.4v-8.9 M49.9,460.4v-8.9 M45.5,460.4v-8.9 M43.3,460.4v-8.9 M38.8,460.4v-8.9 M34.4,460.4v-8.9 M29.9,460.4v-8.9
		 M41.1,460.4v-8.9 M36.6,460.4v-8.9 M32.2,460.4v-8.9 M27.7,460.4v-8.9"/>
	<rect x="35.5" y="278" pointer-events="none" class="st3" width="5" height="125"/>
	<path pointer-events="none" class="st5" d="M35.5,385.1l-4-12.5c-0.6-1.6-0.9-3.5-1-5.4v-53.6c0.1-1.9,0.4-3.7,1-5.4l4-12.5V385.1z
		"/>
	<path pointer-events="none" class="st4" d="M31.5,351.2h4 M31.5,345.9h4 M31.5,340.5h4 M31.5,329.8h4 M31.5,335.1h4"/>
	<ellipse pointer-events="none" class="st3" cx="61.5" cy="216.5" rx="14.9" ry="15"/>
	<ellipse pointer-events="none" class="st3" cx="60.5" cy="229.5" rx="5.3" ry="11.8"/>
	<path pointer-events="none" class="st5" d="M60.8,216.6c0.9,1,0.6,2.9-0.7,5.2c-1.3,2.3-3.6,4.9-6.3,7.1
		c-5.6,4.6-11.6,6.6-13.4,4.4c-0.9-1-0.6-2.9,0.7-5.2c1.3-2.3,3.5-4.9,6.3-7.1C53.1,216.4,59,214.5,60.8,216.6z"/>
	<path pointer-events="none" class="st5" d="M33.7,203.2c1.4-3,8.9-2.3,16.8,1.5c3.8,1.9,7.1,4.2,9.3,6.5c2.2,2.3,3,4.4,2.2,5.8
		c-1.5,3-9,2.3-16.8-1.5c-3.8-1.9-7.1-4.2-9.3-6.5C33.8,206.7,33,204.6,33.7,203.2z"/>
	<path pointer-events="none" class="st5" d="M63.4,213.9c2.5-2.7,9.2-0.7,14.9,4.5c2.8,2.5,5,5.5,6.1,8.2c1.1,2.7,1,5-0.2,6.3
		c-2.5,2.7-9.2,0.7-15-4.5c-2.8-2.5-5-5.5-6.1-8.2C62.1,217.5,62.2,215.3,63.4,213.9z"/>
	<path pointer-events="none" class="st5" d="M87.7,203.9c0.7,1.2,0,3.1-2.1,5.4c-2,2.3-5.2,4.7-8.8,6.7c-7.4,4.2-14.5,5.6-15.9,3.1
		c-0.7-1.2,0-3.1,2.1-5.4c2-2.3,5.2-4.7,8.8-6.8C79.2,202.9,86.3,201.5,87.7,203.9z"/>
	<path pointer-events="none" class="st5" d="M55.8,193.5c2.7-0.6,6.2,4.7,7.8,11.8c0.8,3.4,0.9,6.8,0.5,9.4
		c-0.4,2.6-1.4,4.3-2.7,4.5c-2.7,0.6-6.2-4.7-7.8-11.8c-0.8-3.4-1-6.8-0.5-9.4C53.5,195.4,54.5,193.8,55.8,193.5z"/>
	<path pointer-events="none" class="st5" d="M70.2,200.7c1,0.5,1.4,2,1.2,4.1c-0.2,2.1-1.1,4.7-2.4,7.1c-2.7,5.1-6.5,8.4-8.6,7.3
		c-1-0.5-1.4-2-1.2-4.1c0.2-2.1,1.1-4.7,2.4-7.1C64.3,202.9,68.2,199.7,70.2,200.7z"/>
	<path pointer-events="none" class="st5" d="M10.5,778.5v-2c0-1.1,0.4-2.1,1.2-2.8s1.8-1.2,2.8-1.2h52c1.1,0,2.1,0.4,2.8,1.2
		s1.2,1.8,1.2,2.8v2H10.5z"/>
	<rect x="10.5" y="780.5" pointer-events="none" class="st3" width="60" height="47"/>
	<path pointer-events="none" class="st4" d="M64.5,827.5c0.3,1.2,0,2.5-0.8,3.5c-0.8,1-2,1.5-3.3,1.5h-40c-1.3,0-2.5-0.5-3.3-1.5
		c-0.8-1-1.1-2.3-0.8-3.5"/>
	<rect x="19.5" y="770.5" pointer-events="none" class="st3" width="6" height="2"/>
	<rect x="0.5" y="249.5" pointer-events="none" class="st3" width="10" height="200"/>
	<path pointer-events="none" class="st4" d="M5.5,249.5v200"/>
	<rect x="1113.5" y="630.5" pointer-events="none" class="st3" width="10" height="140"/>
	<path pointer-events="none" class="st4" d="M1118.5,630.5v140"/>
	<rect x="0.5" y="619.5" pointer-events="none" class="st3" width="10" height="150"/>
	<path pointer-events="none" class="st4" d="M5.5,619.5v150"/>
	<path pointer-events="none" class="st7" d="M137,623.1l2.9,23.8c0.6,3.5-1,7-3.9,8.9c-10,1.6-20.1,1.6-30.1,0
		c-2.9-1.9-4.4-5.4-3.9-8.9l2.9-23.8c0.6-2.6,3.3-4.7,6.8-5h18.4C133.7,618.5,136.5,620.5,137,623.1z M111,618.2l-5-6.3
		 M116.6,618.2l-1.7-7.2 M123.2,618.2l2.2-7.2 M128.7,618.2l5.5-6.3 M135.9,612.2c-10.3-1.6-20.8-1.6-31,0l-4.4-4
		c13.1-2.7,26.8-2.7,39.9,0L135.9,612.2z"/>
	<path pointer-events="none" class="st7" d="M104,727.9l-2.9-23.8c-0.6-3.5,1-7,3.9-8.9c10-1.6,20.1-1.6,30.1,0
		c2.9,1.9,4.4,5.4,3.9,8.9l-2.9,23.8c-0.6,2.6-3.3,4.7-6.8,5h-18.4C107.3,732.5,104.5,730.5,104,727.9z M130,732.8l5,6.3
		 M124.4,732.8l1.7,7.2 M117.8,732.8l-2.2,7.2 M112.3,732.8l-5.5,6.3 M105.1,738.8c10.3,1.6,20.8,1.6,31,0l4.4,4
		c-13.1,2.7-26.8,2.7-39.9,0L105.1,738.8z"/>
	<path pointer-events="none" class="st7" d="M68.1,659L92,656c3.5-0.5,7,1,8.9,3.9c1.6,10,1.6,20.1,0,30.1c-1.9,2.9-5.4,4.4-8.9,3.9
		L68.1,691c-2.6-0.6-4.7-3.3-5-6.8v-18.4C63.5,662.3,65.5,659.5,68.1,659z M63.2,685l-6.3,5 M63.2,679.4l-7.2,1.7 M63.2,672.8
		l-7.2-2.2 M63.2,667.3l-6.3-5.5 M57.2,660.1c-1.6,10.3-1.6,20.8,0,31l-4,4.4c-2.7-13.1-2.7-26.8,0-39.9L57.2,660.1z"/>
	<path pointer-events="none" class="st7" d="M232.9,692L209,695c-3.5,0.5-7-1-8.9-3.9c-1.6-10-1.6-20.1,0-30.1
		c1.9-2.9,5.4-4.4,8.9-3.9l23.8,2.9c2.6,0.6,4.7,3.3,5,6.8v18.4C237.5,688.7,235.5,691.5,232.9,692z M237.8,666l6.3-5 M237.8,671.6
		l7.2-1.7 M237.8,678.2l7.2,2.2 M237.8,683.7l6.3,5.5 M243.8,690.9c1.6-10.3,1.6-20.8,0-31l4-4.4c2.7,13.1,2.7,26.8,0,39.9
		L243.8,690.9z"/>
	<path pointer-events="none" class="st7" d="M197,623.1l2.9,23.8c0.6,3.5-1,7-3.9,8.9c-10,1.6-20.1,1.6-30.1,0
		c-2.9-1.9-4.4-5.4-3.9-8.9l2.9-23.8c0.6-2.6,3.3-4.7,6.8-5h18.4C193.7,618.5,196.5,620.5,197,623.1z M171,618.2l-5-6.3
		 M176.6,618.2l-1.7-7.2 M183.2,618.2l2.2-7.2 M188.7,618.2l5.5-6.3 M195.9,612.2c-10.3-1.6-20.8-1.6-31,0l-4.4-4
		c13.1-2.7,26.8-2.7,39.9,0L195.9,612.2z"/>
	<path pointer-events="none" class="st7" d="M164,727.9l-2.9-23.8c-0.6-3.5,1-7,3.9-8.9c10-1.6,20.1-1.6,30.1,0
		c2.9,1.9,4.4,5.4,3.9,8.9l-2.9,23.8c-0.6,2.6-3.3,4.7-6.8,5h-18.4C167.3,732.5,164.5,730.5,164,727.9z M190,732.8l5,6.3
		 M184.4,732.8l1.7,7.2 M177.8,732.8l-2.2,7.2 M172.3,732.8l-5.5,6.3 M165.1,738.8c10.3,1.6,20.8,1.6,31,0l4.4,4
		c-13.1,2.7-26.8,2.7-39.9,0L165.1,738.8z"/>
	<ellipse pointer-events="none" class="st3" cx="145.5" cy="678.5" rx="80" ry="50"/>
	<path pointer-events="none" class="st5" d="M355.5,835.5h-180v-60h132v-60h48V835.5z"/>
	<rect x="100.5" y="772.5" pointer-events="none" class="st3" width="70" height="60"/>
	<ellipse pointer-events="none" class="st6" cx="117.5" cy="817.5" rx="4.2" ry="3"/>
	<ellipse pointer-events="none" class="st6" cx="117.5" cy="787.5" rx="5.6" ry="4"/>
	<ellipse pointer-events="none" class="st6" cx="152.5" cy="787.5" rx="7" ry="5"/>
	<ellipse pointer-events="none" class="st6" cx="152.5" cy="817.5" rx="8.4" ry="6"/>
	<path pointer-events="none" class="st4" d="M122.9,821l-9.8-7 M113.1,821l9.8-7 M124.3,792l-12.6-9 M111.7,792l12.6-9 M162.1,824
		l-18.2-13 M143.9,824l18.2-13 M160.7,793l-15.4-11 M145.3,793l15.4-11"/>
	<rect x="156.5" y="770.5" pointer-events="none" class="st3" width="7" height="2"/>
	<rect x="143.9" y="770.5" pointer-events="none" class="st3" width="7" height="2"/>
	<rect x="131.3" y="770.5" pointer-events="none" class="st3" width="7" height="2"/>
	<rect x="118.7" y="770.5" pointer-events="none" class="st3" width="7" height="2"/>
	<rect x="106.1" y="770.5" pointer-events="none" class="st3" width="7" height="2"/>
	<rect x="734.5" y="24" pointer-events="none" class="st3" width="190" height="92.3"/>
	<path pointer-events="none" class="st4" d="M734.5,108.6h190 M829.5,108.6v7.7"/>
	<rect x="772.5" y="116.3" pointer-events="none" class="st3" width="19" height="7.7"/>
	<rect x="867.5" y="116.3" pointer-events="none" class="st3" width="19" height="7.7"/>
	<rect x="927.5" y="29" pointer-events="none" class="st3" width="185" height="45"/>
	<path pointer-events="none" class="st4" d="M927.5,66.5c0,2.1,2.4,3.8,5.4,3.8c3,0,5.4-1.7,5.4-3.8V41c-3.2,2.3-7.6,2.3-10.8,0
		V66.5z M939.8,66.5c0,2.1,2.4,3.8,5.4,3.8c3,0,5.4-1.7,5.4-3.8V41c-3.2,2.3-7.6,2.3-10.8,0V66.5z M952.2,66.5
		c0,2.1,2.4,3.8,5.4,3.8s5.4-1.7,5.4-3.8V41c-3.2,2.3-7.6,2.3-10.8,0V66.5z M964.5,66.5c0,2.1,2.4,3.8,5.4,3.8c3,0,5.4-1.7,5.4-3.8
		V41c-3.2,2.3-7.6,2.3-10.8,0V66.5z M976.8,66.5c0,2.1,2.4,3.8,5.4,3.8c3,0,5.4-1.7,5.4-3.8V41c-3.2,2.3-7.6,2.3-10.8,0V66.5z
		 M989.2,66.5c0,2.1,2.4,3.8,5.4,3.8s5.4-1.7,5.4-3.8V41c-3.2,2.3-7.6,2.3-10.8,0V66.5z M1001.5,66.5c0,2.1,2.4,3.8,5.4,3.8
		c3,0,5.4-1.7,5.4-3.8V41c-3.2,2.3-7.6,2.3-10.8,0V66.5z M1013.8,66.5c0,2.1,2.4,3.8,5.4,3.8c3,0,5.4-1.7,5.4-3.8V41
		c-3.2,2.3-7.6,2.3-10.8,0V66.5z M1026.2,66.5c0,2.1,2.4,3.8,5.4,3.8c3,0,5.4-1.7,5.4-3.8V41c-3.2,2.3-7.6,2.3-10.8,0V66.5z
		 M1038.5,66.5c0,2.1,2.4,3.8,5.4,3.8s5.4-1.7,5.4-3.8V41c-3.2,2.3-7.6,2.3-10.8,0V66.5z M1050.8,66.5c0,2.1,2.4,3.8,5.4,3.8
		s5.4-1.7,5.4-3.8V41c-3.2,2.3-7.6,2.3-10.8,0V66.5z M1063.2,66.5c0,2.1,2.4,3.8,5.4,3.8c3,0,5.4-1.7,5.4-3.8V41
		c-3.2,2.3-7.6,2.3-10.8,0V66.5z M1089,36l-9.1,30.2l20.7,5.9l9.1-30.2L1089,36z"/>
	<rect x="808.5" y="652.5" pointer-events="none" class="st3" width="200" height="180"/>
	<path pointer-events="none" class="st6" d="M993.5,827.5h-70c-2.8,0-5-2.2-5-5v-30c0-2.8,2.2-5,5-5h70c2.8,0,5,2.2,5,5v30
		C998.5,825.3,996.3,827.5,993.5,827.5z"/>
	<path pointer-events="none" class="st6" d="M893.5,827.5h-70c-2.8,0-5-2.2-5-5v-30c0-2.8,2.2-5,5-5h70c2.8,0,5,2.2,5,5v30
		C898.5,825.3,896.3,827.5,893.5,827.5z"/>
	<rect x="808.5" y="777.5" pointer-events="none" class="st3" width="200" height="25"/>
	<rect x="675.5" y="706.5" pointer-events="none" class="st3" width="78.5" height="123"/>
	<path pointer-events="none" class="st4" d="M747.4,829.5v-123 M747.4,768h6.5"/>
	<rect x="754" y="792.6" pointer-events="none" class="st3" width="6.5" height="12.3"/>
	<rect x="754" y="731.1" pointer-events="none" class="st3" width="6.5" height="12.3"/>
	<ellipse pointer-events="none" class="st3" cx="1074.5" cy="796.5" rx="14.9" ry="15"/>
	<ellipse pointer-events="none" class="st3" cx="1073.5" cy="809.5" rx="5.3" ry="11.8"/>
	<path pointer-events="none" class="st5" d="M1073.8,796.6c0.9,1,0.6,2.9-0.7,5.2c-1.3,2.3-3.6,4.9-6.3,7.1
		c-5.6,4.6-11.6,6.6-13.3,4.4c-0.9-1-0.6-2.9,0.7-5.2c1.3-2.3,3.6-4.9,6.3-7.1C1066.1,796.4,1072,794.5,1073.8,796.6z"/>
	<path pointer-events="none" class="st5" d="M1046.7,783.2c1.4-3,8.9-2.3,16.8,1.5c3.8,1.8,7.1,4.2,9.3,6.5c2.2,2.3,3,4.4,2.2,5.8
		c-1.5,3-9,2.3-16.8-1.5c-3.8-1.9-7.1-4.2-9.3-6.5C1046.8,786.7,1046,784.6,1046.7,783.2z"/>
	<path pointer-events="none" class="st5" d="M1076.4,793.9c2.5-2.7,9.2-0.7,14.9,4.5c2.8,2.5,5,5.5,6.1,8.2c1.1,2.7,1,5-0.2,6.3
		c-2.5,2.7-9.2,0.7-14.9-4.5c-2.8-2.5-5-5.5-6.1-8.2C1075.1,797.5,1075.2,795.3,1076.4,793.9z"/>
	<path pointer-events="none" class="st5" d="M1100.7,783.9c0.7,1.2,0,3.1-2.1,5.4c-2,2.3-5.2,4.7-8.8,6.7
		c-7.4,4.2-14.5,5.6-15.9,3.1c-0.7-1.2,0-3.1,2.1-5.4c2-2.3,5.2-4.7,8.8-6.8C1092.2,782.9,1099.3,781.5,1100.7,783.9z"/>
	<path pointer-events="none" class="st5" d="M1068.8,773.5c2.7-0.6,6.2,4.7,7.8,11.8c0.8,3.4,0.9,6.8,0.5,9.4
		c-0.4,2.6-1.4,4.3-2.7,4.5c-2.7,0.6-6.2-4.7-7.8-11.8c-0.8-3.4-1-6.8-0.6-9.4C1066.5,775.4,1067.5,773.8,1068.8,773.5z"/>
	<path pointer-events="none" class="st5" d="M1083.2,780.7c1,0.5,1.4,2,1.2,4.1c-0.2,2.1-1.1,4.7-2.4,7.1c-2.7,5.1-6.5,8.4-8.6,7.3
		c-1-0.5-1.4-2-1.2-4.1c0.2-2.1,1.1-4.7,2.4-7.1C1077.3,782.9,1081.2,779.7,1083.2,780.7z"/>
	<path pointer-events="none" class="st7" d="M1034.1,233.6l23.8-3c3.5-0.6,7,1,8.9,4c1.6,10.2,1.6,20.6,0,30.8c-1.9,3-5.4,4.5-8.9,4
		l-23.8-3c-2.6-0.6-4.7-3.4-5-7v-18.9C1029.4,237,1031.5,234.1,1034.1,233.6z M1029.2,260.2l-6.3,5.1 M1029.2,254.5l-7.2,1.7
		 M1029.2,247.7l-7.2-2.3 M1029.2,242.1l-6.3-5.7 M1023.2,234.7c-1.6,10.5-1.6,21.3,0,31.8l-4,4.5c-2.7-13.4-2.7-27.4,0-40.9
		L1023.2,234.7z"/>
	<rect x="1113" y="258.5" pointer-events="none" class="st3" width="10" height="200"/>
	<path pointer-events="none" class="st4" d="M1118,258.5v200"/>
	<rect x="732.5" y="423.5" pointer-events="none" class="st3" width="209" height="130"/>
	<path pointer-events="none" class="st6" d="M738.3,534.7v-92.4c0-3.2,2.6-5.8,5.8-5.8h34.8c3.2,0,5.8,2.6,5.8,5.8v92.4
		c0,3.2-2.6,5.8-5.8,5.8h-34.8C740.9,540.5,738.3,537.9,738.3,534.7z"/>
	<rect x="767.3" y="423.5" pointer-events="none" class="st3" width="29" height="130"/>
	<rect x="732.5" y="191.5" pointer-events="none" class="st3" width="201" height="130"/>
	<path pointer-events="none" class="st6" d="M738.1,302.9v-92.8c0-3.1,2.5-5.6,5.6-5.6h33.5c3.1,0,5.6,2.5,5.6,5.6v92.8
		c0,3.1-2.5,5.6-5.6,5.6h-33.5C740.6,308.5,738.1,306,738.1,302.9z"/>
	<rect x="766" y="191.5" pointer-events="none" class="st3" width="27.9" height="130"/>
	<rect x="1043" y="195.5" pointer-events="none" class="st3" width="70" height="110"/>
	<path pointer-events="none" class="st7" d="M1059.4,487.1l3,23.8c0.6,3.5-1,7-4,8.9c-10.2,1.6-20.6,1.6-30.8,0
		c-3-1.9-4.5-5.4-4-8.9l3-23.8c0.6-2.6,3.4-4.7,7-5h18.9C1056,482.5,1058.9,484.5,1059.4,487.1z M1032.8,482.1l-5.1-6.3
		 M1038.5,482.1l-1.7-7.2 M1045.3,482.1l2.3-7.2 M1050.9,482.1l5.7-6.3 M1058.3,476.2c-10.5-1.6-21.3-1.6-31.8,0l-4.5-4
		c13.4-2.7,27.4-2.7,40.9,0L1058.3,476.2z"/>
	<rect x="988" y="489" pointer-events="none" class="st3" width="110" height="70"/>
</g>
<g id="Wardrobe" class="room">
	<path pointer-events="none" class="room" d="M725.5,169.5V0.5h397v169h-10v-159h-377v159H725.5z"/>
	<rect x="725.5" y="164.5" pointer-events="none" class="room" width="202" height="10"/>
	<rect x="1042.5" y="164" pointer-events="none" class="room" width="80" height="10"/>
</g>
<line id="Livingroom-way" class="st6" x1="393" y1="370.5" x2="582" y2="371.5"/>
<line id="Entrance-way" class="st6" x1="582" y1="371.5" x2="582" y2="108.6"/>
<line id="Firstbedroom-way" class="st6" x1="582" y1="371.5" x2="819.2" y2="371.5"/>
<line id="Bathroom-way" class="st6" x1="582" y1="740" x2="582" y2="642"/>
<line id="Secondbedroom-way" class="st6" x1="582" y1="642" x2="754" y2="642"/>
<line id="Cross-2-Cross-3" class="st6" x1="582" y1="642" x2="436.9" y2="642"/>
<line id="WC-way" class="st6" x1="436.9" y1="642" x2="436.9" y2="739.1"/>
<line id="Kitchen-way" class="st6" x1="436.9" y1="642" x2="314" y2="642"/>
<line id="Wardrobe-way" class="st6" x1="989.2" y1="120.2" x2="987.6" y2="370.5"/>
<line id="Firstbedroom-Wardrobe-way" class="st6" x1="819.2" y1="371.5" x2="987.6" y2="371.5"/>
<circle id="Cross-1" class="st6" cx="582" cy="371.5" r="2.5"/>
<circle id="Cross-2" class="st6" cx="582" cy="642" r="2.5"/>
<circle id="Cross-3" class="st6" cx="436.9" cy="642" r="2.5"/>
<line id="Corss-1-Cross-2" class="st6" x1="582" y1="371.5" x2="582" y2="642"/>
</svg>
