<?xml version="1.0" encoding="utf-8"?>
<?xml-stylesheet type="text/css" href="../Map.css"?>

<!-- Generator: Adobe Illustrator 22.0.1, SVG Export Plug-In . SVG Version: 6.00 Build 0)  -->
<svg version="1.1" id="Слой_1" xmlns="http://www.w3.org/2000/svg" xmlns:xlink="http://www.w3.org/1999/xlink" x="0px" y="0px"
	 viewBox="0 0 1198 833" >

<path id="Entrance"  class="st0" d="M407.5,170.5V0.5h300v170h-10v-160h-280v160H407.5z"/>
<g id="Livingroom">
	<path  class="st0" d="M470.5,565.5H0.5v-400h470v10h-460v380h460V565.5z"/>
	<rect x="465.5" y="165.5"  class="st1" width="10" height="122"/>
	<rect x="465.5" y="445.5"  class="st1" width="10" height="120"/>
</g>
<g id="Wardrobe">
	<path  class="st0" d="M702.5,170.5V0.5h400v170h-10v-160h-380v160H702.5z"/>
	<rect x="702.5" y="171"  class="st1" width="210" height="10"/>
	<rect x="1022.5" y="169"  class="st1" width="80" height="10"/>
</g>
<g id="Firstbedroom">
	<rect x="697.5" y="169"  class="st1" width="10" height="155"/>
	<rect x="697.5" y="415.5"  class="st1" width="10" height="155"/>
	<rect x="702.5" y="560.5"  class="st1" width="400" height="10"/>
	<rect x="1092.5" y="169.5"  class="st1" width="10" height="400"/>
	<rect x="707.5" y="171"  class="st1" width="205" height="10"/>
	<rect x="1022.5" y="169"  class="st1" width="80" height="10"/>
</g>
<g id="Secondbedroom">
	<path  class="st0" d="M642.5,560.5h460v270h-460v-10h450v-250h-450V560.5z"/>
	<rect x="635.5" y="680.5"  class="st2" width="10" height="150"/>
	<rect x="635.5" y="560.5"  class="st2" width="10" height="40"/>
</g>
<g id="Bathroom">
	<path  class="st0" d="M645.5,690.5v140h-180v-140h10v130h160v-130H645.5z"/>
	<rect x="600.5" y="683"  class="st1" width="35" height="10"/>
	<rect x="465.5" y="683"  class="st1" width="55" height="10"/>
</g>
<g id="WC">
	<path  class="st0" d="M475.5,690.5v140h-110v-140h10v130h90v-130H475.5z"/>
	<rect x="370.5" y="683"  class="st1" width="10" height="10"/>
	<rect x="460.5" y="683"  class="st1" width="10" height="10"/>
</g>
<g id="Kitchen">
	<path  class="st0" d="M365.5,830.5H0.5v-275h365v10h-355v255h355V830.5z"/>
	<rect x="365.5" y="680.5"  class="st1" width="10" height="150"/>
	<rect x="365.5" y="565.5"  class="st1" width="10" height="35"/>
</g>
<g id="Furniture">
	<rect x="473" y="286.5"  class="st3" width="5" height="160"/>
	<path  class="st4" d="M478,366.5h-5 M473,366.5c-44.2,0-80-35.8-80-80h80 M473,366.5c-44.2,0-80,35.8-80,80
		h80"/>
	<rect x="699.6" y="323.4"  class="st3" width="5" height="94.1"/>
	<path  class="st4" d="M704.6,417.6c52,0,94.1-42.1,94.1-94.1h-94.1"/>
	<path  class="st5" d="M1013.6,229.6l23.8-3c3.5-0.6,7,1,8.9,4c1.6,10.2,1.6,20.6,0,30.8c-1.9,3-5.4,4.5-8.9,4
		l-23.8-3c-2.6-0.6-4.7-3.4-5-7v-18.9C1009,233,1011,230.1,1013.6,229.6z M1008.7,256.2l-6.3,5.1 M1008.7,250.5l-7.2,1.7
		 M1008.7,243.7l-7.2-2.3 M1008.7,238.1l-6.3-5.7 M1002.7,230.7c-1.6,10.5-1.6,21.3,0,31.8l-4,4.5c-2.7-13.5-2.7-27.4,0-40.9
		L1002.7,230.7z"/>
	<rect x="712" y="419.5"  class="st3" width="209" height="130"/>
	<path  class="st6" d="M717.8,530.7v-92.4c0-3.2,2.6-5.8,5.8-5.8h34.8c3.2,0,5.8,2.6,5.8,5.8v92.4
		c0,3.2-2.6,5.8-5.8,5.8h-34.8C720.4,536.5,717.8,533.9,717.8,530.7z"/>
	<rect x="746.8" y="419.5"  class="st3" width="29" height="130"/>
	<rect x="712" y="187.5"  class="st3" width="201" height="130"/>
	<path  class="st6" d="M717.6,298.9v-92.8c0-3.1,2.5-5.6,5.6-5.6h33.5c3.1,0,5.6,2.5,5.6,5.6v92.8
		c0,3.1-2.5,5.6-5.6,5.6h-33.5C720.1,304.5,717.6,302,717.6,298.9z"/>
	<rect x="745.5" y="187.5"  class="st3" width="27.9" height="130"/>
	<rect x="1022.5" y="191.5"  class="st3" width="70" height="110"/>
	<path  class="st5" d="M1038.9,483.1l3,23.8c0.6,3.5-1,7-4,8.9c-10.2,1.6-20.6,1.6-30.8,0
		c-3-1.9-4.5-5.4-4-8.9l3-23.8c0.6-2.6,3.4-4.7,7-5h18.9C1035.5,478.5,1038.4,480.5,1038.9,483.1z M1012.3,478.1l-5.1-6.3
		 M1018,478.1l-1.7-7.2 M1024.8,478.1l2.3-7.2 M1030.4,478.1l5.7-6.3 M1037.8,472.2c-10.5-1.6-21.3-1.6-31.8,0l-4.5-4
		c13.5-2.7,27.4-2.7,40.9,0L1037.8,472.2z"/>
	<rect x="967.5" y="485"  class="st3" width="110" height="70"/>
	<rect x="638" y="600.5"  class="st3" width="5" height="80"/>
	<path  class="st4" d="M643,680.5c44.2,0,80-35.8,80-80h-80"/>
	<rect x="520.5" y="683"  class="st3" width="79.3" height="5"/>
	<path  class="st4" d="M520.5,683c0-43.8,35.5-79.3,79.3-79.3V683"/>
	<rect x="380.5" y="683"  class="st3" width="80" height="5"/>
	<path  class="st4" d="M380.5,683c0-44.2,35.8-80,80-80v80"/>
	<rect x="370.5" y="600.5"  class="st3" width="5" height="82"/>
	<path  class="st4" d="M370.5,682.5c-45.3,0-82-36.7-82-82h82"/>
	<path  class="st7" d="M397.1,218.5l12.6-14.1c2.1-2.4,5.2-3.4,7.9-2.7c7.5,4,14,9.3,19.3,15.9
		c0.2,2.4-0.9,5-3,6.8l-16.4,11.1c-2.1,1.6-5.3,1.2-7.4-1l-11.8-9.7C396.8,223,396.2,220.5,397.1,218.5z"/>
	<path  class="st7" d="M394.3,221.8c-0.2-0.7,0.3-1.5,1-1.8c0.7-0.3,1.5-0.1,1.6,0.6
		c4.5,6.9,10.8,12.2,18.6,15.3c0.1,0.4,0,0.9-0.3,1.3c-0.3,0.4-0.7,0.8-1.1,0.9C405.7,235,398.9,229.4,394.3,221.8"/>
	<path  class="st7" d="M465.5,175.5v110h-34.7v-44l-43.3-36.7h-52v-29.3H465.5z"/>
	<rect x="208.8" y="535.5"  class="st3" width="173.3" height="10"/>
	<path  class="st3" d="M391.5,555.5h-12c-2.2,0-4-1.8-4-4v-72c0-2.2,1.8-4,4-4h12c2.2,0,4,1.8,4,4v72
		C395.5,553.7,393.7,555.5,391.5,555.5z"/>
	<path  class="st3" d="M372.5,555.5h-154c-1.7,0-3-1.3-3-3v-9c0-1.7,1.3-3,3-3h154c1.7,0,3,1.3,3,3v9
		C375.5,554.2,374.2,555.5,372.5,555.5z"/>
	<path  class="st3" d="M372.3,540.5h-73.5c-1.8,0-3.3-1.5-3.3-3.3v-58.5c0-1.8,1.5-3.3,3.3-3.3h73.5
		c1.8,0,3.3,1.5,3.3,3.3v58.5C375.5,539,374,540.5,372.3,540.5z"/>
	<path  class="st3" d="M292.3,540.5h-73.5c-1.8,0-3.3-1.5-3.3-3.3v-58.5c0-1.8,1.5-3.3,3.3-3.3h73.5
		c1.8,0,3.3,1.5,3.3,3.3v58.5C295.5,539,294,540.5,292.3,540.5z"/>
	<path  class="st3" d="M211.5,555.5h-12c-2.2,0-4-1.8-4-4v-72c0-2.2,1.8-4,4-4h12c2.2,0,4,1.8,4,4v72
		C215.5,553.7,213.7,555.5,211.5,555.5z"/>
	
		<rect x="418" y="183"  transform="matrix(0.766 -0.6428 0.6428 0.766 -28.5982 327.427)" class="st3" width="35" height="40"/>
	
		<rect x="438" y="178.3"  transform="matrix(0.766 -0.6428 0.6428 0.766 -22.3781 331.0182)" class="st6" width="11" height="36"/>
	
		<rect x="425.6" y="187.6"  transform="matrix(0.766 -0.6428 0.6428 0.766 -31.4121 325.8024)" class="st6" width="12.5" height="37"/>
	
		<rect x="422.4" y="208.3"  transform="matrix(0.766 -0.6428 0.6428 0.766 -37.188 322.4677)" class="st6" width="4" height="8"/>
	<path  class="st4" d="M425.3,185.4l25.7,30.6 M422.8,189.5l23.8,28.3 M420.9,191.1l23.8,28.3 M419,192.7
		l23.8,28.3 M425.1,203.9l-1.9,1.6 M432.8,213.1l-1.9,1.6 M417.1,194.3l23.8,28.3"/>
	<path  class="st7" d="M125.5,446.5v88.8c-2.6,10.1-11.8,17.2-22.2,17.2c-10.5,0-19.6-7.1-22.2-17.2
		c-6.9-20.7-23.5-36.8-44.4-42.9c-5.5-1.9-9.8-8.1-11.1-16.3v-29.6H125.5z"/>
	<rect x="25.5" y="446.5"  class="st6" width="100" height="8.9"/>
	<polygon  class="st6" points="125.5,552.5 125.5,552.5 125.5,552.5 	"/>
	<path  class="st4" d="M123.3,455.4v-8.9 M118.8,455.4v-8.9 M114.4,455.4v-8.9 M109.9,455.4v-8.9 M105.5,455.4
		v-8.9 M101.1,455.4v-8.9 M96.6,455.4v-8.9 M92.2,455.4v-8.9 M87.7,455.4v-8.9 M121.1,455.4v-8.9 M116.6,455.4v-8.9 M112.2,455.4
		v-8.9 M107.7,455.4v-8.9 M103.3,455.4v-8.9 M98.8,455.4v-8.9 M94.4,455.4v-8.9 M89.9,455.4v-8.9 M85.5,455.4v-8.9 M83.3,455.4v-8.9
		 M78.8,455.4v-8.9 M74.4,455.4v-8.9 M69.9,455.4v-8.9 M65.5,455.4v-8.9 M61.1,455.4v-8.9 M56.6,455.4v-8.9 M52.2,455.4v-8.9
		 M47.7,455.4v-8.9 M81.1,455.4v-8.9 M76.6,455.4v-8.9 M72.2,455.4v-8.9 M67.7,455.4v-8.9 M63.3,455.4v-8.9 M58.8,455.4v-8.9
		 M54.4,455.4v-8.9 M49.9,455.4v-8.9 M45.5,455.4v-8.9 M43.3,455.4v-8.9 M38.8,455.4v-8.9 M34.4,455.4v-8.9 M29.9,455.4v-8.9
		 M41.1,455.4v-8.9 M36.6,455.4v-8.9 M32.2,455.4v-8.9 M27.7,455.4v-8.9"/>
	<rect x="35.5" y="273"  class="st3" width="5" height="125"/>
	<path  class="st7" d="M35.5,380.1l-4-12.5c-0.6-1.6-0.9-3.5-1-5.4v-53.6c0.1-1.9,0.4-3.7,1-5.4l4-12.5V380.1z
		"/>
	<path  class="st4" d="M31.5,346.2h4 M31.5,340.9h4 M31.5,335.5h4 M31.5,324.8h4 M31.5,330.1h4"/>
	<ellipse  class="st3" cx="61.5" cy="211.5" rx="14.9" ry="15"/>
	<ellipse  class="st3" cx="60.5" cy="224.5" rx="5.3" ry="11.8"/>
	<path  class="st7" d="M60.8,211.6c0.9,1,0.6,2.9-0.7,5.2c-1.3,2.3-3.6,4.9-6.3,7.1
		c-5.6,4.6-11.6,6.6-13.4,4.4c-0.9-1-0.6-2.9,0.7-5.2c1.3-2.3,3.5-4.9,6.3-7.1C53.1,211.4,59,209.5,60.8,211.6z"/>
	<path  class="st7" d="M33.7,198.2c1.4-3,8.9-2.3,16.8,1.5c3.8,1.9,7.1,4.2,9.3,6.5c2.2,2.3,3,4.4,2.2,5.8
		c-1.5,3-9,2.3-16.8-1.5c-3.8-1.9-7.1-4.2-9.3-6.5C33.8,201.7,33,199.6,33.7,198.2z"/>
	<path  class="st7" d="M63.4,208.9c2.5-2.7,9.2-0.7,14.9,4.5c2.8,2.5,5,5.5,6.1,8.2c1.1,2.7,1,5-0.2,6.3
		c-2.5,2.7-9.2,0.7-15-4.5c-2.8-2.5-5-5.5-6.1-8.2C62.1,212.5,62.2,210.3,63.4,208.9z"/>
	<path  class="st7" d="M87.7,198.9c0.7,1.2,0,3.1-2.1,5.4c-2,2.3-5.2,4.7-8.8,6.7c-7.4,4.2-14.5,5.6-15.9,3.1
		c-0.7-1.2,0-3.1,2.1-5.4c2-2.3,5.2-4.7,8.8-6.8C79.2,197.9,86.3,196.5,87.7,198.9z"/>
	<path  class="st7" d="M55.8,188.5c2.7-0.6,6.2,4.7,7.8,11.8c0.8,3.4,0.9,6.8,0.5,9.4
		c-0.4,2.6-1.4,4.3-2.7,4.5c-2.7,0.6-6.2-4.7-7.8-11.8c-0.8-3.4-1-6.8-0.5-9.4C53.5,190.4,54.5,188.8,55.8,188.5z"/>
	<path  class="st7" d="M70.2,195.7c1,0.5,1.4,2,1.2,4.1c-0.2,2.1-1.1,4.7-2.4,7.1c-2.7,5.1-6.5,8.4-8.6,7.3
		c-1-0.5-1.4-2-1.2-4.1c0.2-2.1,1.1-4.7,2.4-7.1C64.3,197.9,68.2,194.7,70.2,195.7z"/>
	<path  class="st7" d="M10.5,763.5v-2c0-1.1,0.4-2.1,1.2-2.8s1.8-1.2,2.8-1.2h52c1.1,0,2.1,0.4,2.8,1.2
		s1.2,1.8,1.2,2.8v2H10.5z"/>
	<rect x="10.5" y="765.5"  class="st3" width="60" height="47"/>
	<path  class="st4" d="M64.5,812.5c0.3,1.2,0,2.5-0.8,3.5c-0.8,1-2,1.5-3.3,1.5h-40c-1.3,0-2.5-0.5-3.3-1.5
		c-0.8-1-1.1-2.3-0.8-3.5"/>
	<rect x="19.5" y="755.5"  class="st3" width="6" height="2"/>
	<rect x="0.5" y="244.5"  class="st3" width="10" height="200"/>
	<path  class="st4" d="M5.5,244.5v200"/>
	<rect x="1092.5" y="615.5"  class="st3" width="10" height="140"/>
	<path  class="st4" d="M1097.5,615.5v140"/>
	<rect x="0.5" y="604.5"  class="st3" width="10" height="150"/>
	<path  class="st4" d="M5.5,604.5v150"/>
	<path  class="st5" d="M137,608.1l2.9,23.8c0.6,3.5-1,7-3.9,8.9c-10,1.6-20.1,1.6-30.1,0
		c-2.9-1.9-4.4-5.4-3.9-8.9l2.9-23.8c0.6-2.6,3.3-4.7,6.8-5h18.4C133.7,603.5,136.5,605.5,137,608.1z M111,603.2l-5-6.3
		 M116.6,603.2l-1.7-7.2 M123.2,603.2l2.2-7.2 M128.7,603.2l5.5-6.3 M135.9,597.2c-10.3-1.6-20.8-1.6-31,0l-4.4-4
		c13.1-2.7,26.8-2.7,39.9,0L135.9,597.2z"/>
	<path  class="st5" d="M104,712.9l-2.9-23.8c-0.6-3.5,1-7,3.9-8.9c10-1.6,20.1-1.6,30.1,0
		c2.9,1.9,4.4,5.4,3.9,8.9l-2.9,23.8c-0.6,2.6-3.3,4.7-6.8,5h-18.4C107.3,717.5,104.5,715.5,104,712.9z M130,717.8l5,6.3
		 M124.4,717.8l1.7,7.2 M117.8,717.8l-2.2,7.2 M112.3,717.8l-5.5,6.3 M105.1,723.8c10.3,1.6,20.8,1.6,31,0l4.4,4
		c-13.1,2.7-26.8,2.7-39.9,0L105.1,723.8z"/>
	<path  class="st5" d="M68.1,644L92,641c3.5-0.5,7,1,8.9,3.9c1.6,10,1.6,20.1,0,30.1c-1.9,2.9-5.4,4.4-8.9,3.9
		L68.1,676c-2.6-0.6-4.7-3.3-5-6.8v-18.4C63.5,647.3,65.5,644.5,68.1,644z M63.2,670l-6.3,5 M63.2,664.4l-7.2,1.7 M63.2,657.8
		l-7.2-2.2 M63.2,652.3l-6.3-5.5 M57.2,645.1c-1.6,10.3-1.6,20.8,0,31l-4,4.4c-2.7-13.1-2.7-26.8,0-39.9L57.2,645.1z"/>
	<path  class="st5" d="M232.9,677L209,680c-3.5,0.5-7-1-8.9-3.9c-1.6-10-1.6-20.1,0-30.1
		c1.9-2.9,5.4-4.4,8.9-3.9l23.8,2.9c2.6,0.6,4.7,3.3,5,6.8v18.4C237.5,673.7,235.5,676.5,232.9,677z M237.8,651l6.3-5 M237.8,656.6
		l7.2-1.7 M237.8,663.2l7.2,2.2 M237.8,668.7l6.3,5.5 M243.8,675.9c1.6-10.3,1.6-20.8,0-31l4-4.4c2.7,13.1,2.7,26.8,0,39.9
		L243.8,675.9z"/>
	<path  class="st5" d="M197,608.1l2.9,23.8c0.6,3.5-1,7-3.9,8.9c-10,1.6-20.1,1.6-30.1,0
		c-2.9-1.9-4.4-5.4-3.9-8.9l2.9-23.8c0.6-2.6,3.3-4.7,6.8-5h18.4C193.7,603.5,196.5,605.5,197,608.1z M171,603.2l-5-6.3
		 M176.6,603.2l-1.7-7.2 M183.2,603.2l2.2-7.2 M188.7,603.2l5.5-6.3 M195.9,597.2c-10.3-1.6-20.8-1.6-31,0l-4.4-4
		c13.1-2.7,26.8-2.7,39.9,0L195.9,597.2z"/>
	<path  class="st5" d="M164,712.9l-2.9-23.8c-0.6-3.5,1-7,3.9-8.9c10-1.6,20.1-1.6,30.1,0
		c2.9,1.9,4.4,5.4,3.9,8.9l-2.9,23.8c-0.6,2.6-3.3,4.7-6.8,5h-18.4C167.3,717.5,164.5,715.5,164,712.9z M190,717.8l5,6.3
		 M184.4,717.8l1.7,7.2 M177.8,717.8l-2.2,7.2 M172.3,717.8l-5.5,6.3 M165.1,723.8c10.3,1.6,20.8,1.6,31,0l4.4,4
		c-13.1,2.7-26.8,2.7-39.9,0L165.1,723.8z"/>
	<ellipse  class="st3" cx="150.5" cy="660.5" rx="80" ry="50"/>
	<path  class="st7" d="M365.5,820.5h-180v-60h132v-60h48V820.5z"/>
	<rect x="100.5" y="757.5"  class="st3" width="70" height="60"/>
	<ellipse  class="st6" cx="117.5" cy="802.5" rx="4.2" ry="3"/>
	<ellipse  class="st6" cx="117.5" cy="772.5" rx="5.6" ry="4"/>
	<ellipse  class="st6" cx="152.5" cy="772.5" rx="7" ry="5"/>
	<ellipse  class="st6" cx="152.5" cy="802.5" rx="8.4" ry="6"/>
	<path  class="st4" d="M122.9,806l-9.8-7 M113.1,806l9.8-7 M124.3,777l-12.6-9 M111.7,777l12.6-9 M162.1,809
		l-18.2-13 M143.9,809l18.2-13 M160.7,778l-15.4-11 M145.3,778l15.4-11"/>
	<rect x="156.5" y="755.5"  class="st3" width="7" height="2"/>
	<rect x="143.9" y="755.5"  class="st3" width="7" height="2"/>
	<rect x="131.3" y="755.5"  class="st3" width="7" height="2"/>
	<rect x="118.7" y="755.5"  class="st3" width="7" height="2"/>
	<rect x="106.1" y="755.5"  class="st3" width="7" height="2"/>
	<rect x="712.5" y="10.5"  class="st3" width="190" height="92.3"/>
	<path  class="st4" d="M712.5,95.1h190 M807.5,95.1v7.7"/>
	<rect x="750.5" y="102.8"  class="st3" width="19" height="7.7"/>
	<rect x="845.5" y="102.8"  class="st3" width="19" height="7.7"/>
	<rect x="905.5" y="15.5"  class="st3" width="185" height="45"/>
	<path  class="st4" d="M905.5,53c0,2.1,2.4,3.8,5.4,3.8c3,0,5.4-1.7,5.4-3.8V27.5c-3.2,2.3-7.6,2.3-10.8,0V53z
		 M917.8,53c0,2.1,2.4,3.8,5.4,3.8c3,0,5.4-1.7,5.4-3.8V27.5c-3.2,2.3-7.6,2.3-10.8,0V53z M930.2,53c0,2.1,2.4,3.8,5.4,3.8
		s5.4-1.7,5.4-3.8V27.5c-3.2,2.3-7.6,2.3-10.8,0V53z M942.5,53c0,2.1,2.4,3.8,5.4,3.8c3,0,5.4-1.7,5.4-3.8V27.5
		c-3.2,2.3-7.6,2.3-10.8,0V53z M954.8,53c0,2.1,2.4,3.8,5.4,3.8c3,0,5.4-1.7,5.4-3.8V27.5c-3.2,2.3-7.6,2.3-10.8,0V53z M967.2,53
		c0,2.1,2.4,3.8,5.4,3.8s5.4-1.7,5.4-3.8V27.5c-3.2,2.3-7.6,2.3-10.8,0V53z M979.5,53c0,2.1,2.4,3.8,5.4,3.8c3,0,5.4-1.7,5.4-3.8
		V27.5c-3.2,2.3-7.6,2.3-10.8,0V53z M991.8,53c0,2.1,2.4,3.8,5.4,3.8c3,0,5.4-1.7,5.4-3.8V27.5c-3.2,2.3-7.6,2.3-10.8,0V53z
		 M1004.2,53c0,2.1,2.4,3.8,5.4,3.8s5.4-1.7,5.4-3.8V27.5c-3.2,2.3-7.6,2.3-10.8,0V53z M1016.5,53c0,2.1,2.4,3.8,5.4,3.8
		c3,0,5.4-1.7,5.4-3.8V27.5c-3.2,2.3-7.6,2.3-10.8,0V53z M1028.8,53c0,2.1,2.4,3.8,5.4,3.8s5.4-1.7,5.4-3.8V27.5
		c-3.2,2.3-7.6,2.3-10.8,0V53z M1041.2,53c0,2.1,2.4,3.8,5.4,3.8c3,0,5.4-1.7,5.4-3.8V27.5c-3.2,2.3-7.6,2.3-10.8,0V53z M1067,22.5
		l-9.1,30.2l20.7,5.9l9.1-30.2L1067,22.5z"/>
	<rect x="787.5" y="637.5"  class="st3" width="200" height="180"/>
	<path  class="st6" d="M972.5,812.5h-70c-2.8,0-5-2.2-5-5v-30c0-2.8,2.2-5,5-5h70c2.8,0,5,2.2,5,5v30
		C977.5,810.3,975.3,812.5,972.5,812.5z"/>
	<path  class="st6" d="M872.5,812.5h-70c-2.8,0-5-2.2-5-5v-30c0-2.8,2.2-5,5-5h70c2.8,0,5,2.2,5,5v30
		C877.5,810.3,875.3,812.5,872.5,812.5z"/>
	<rect x="787.5" y="762.5"  class="st3" width="200" height="25"/>
	<rect x="654.5" y="691.5"  class="st3" width="78.5" height="123"/>
	<path  class="st4" d="M726.4,814.5v-123 M726.4,753h6.5"/>
	<rect x="733" y="777.6"  class="st3" width="6.5" height="12.3"/>
	<rect x="733" y="716.1"  class="st3" width="6.5" height="12.3"/>
	<ellipse  class="st3" cx="1053.5" cy="781.5" rx="14.9" ry="15"/>
	<ellipse  class="st3" cx="1052.5" cy="794.5" rx="5.3" ry="11.8"/>
	<path  class="st7" d="M1052.8,781.6c0.9,1,0.6,2.9-0.7,5.2c-1.3,2.3-3.6,4.9-6.3,7.1
		c-5.6,4.6-11.6,6.6-13.3,4.4c-0.9-1-0.6-2.9,0.7-5.2c1.3-2.3,3.6-4.9,6.3-7.1C1045.1,781.4,1051,779.5,1052.8,781.6z"/>
	<path  class="st7" d="M1025.7,768.2c1.4-3,8.9-2.3,16.8,1.5c3.8,1.8,7.1,4.2,9.3,6.5c2.2,2.3,3,4.4,2.2,5.8
		c-1.5,3-9,2.3-16.8-1.5c-3.8-1.9-7.1-4.2-9.3-6.5C1025.8,771.7,1025,769.6,1025.7,768.2z"/>
	<path  class="st7" d="M1055.4,778.9c2.5-2.7,9.2-0.7,14.9,4.5c2.8,2.5,5,5.5,6.1,8.2c1.1,2.7,1,5-0.2,6.3
		c-2.5,2.7-9.2,0.7-14.9-4.5c-2.8-2.5-5-5.5-6.1-8.2C1054.1,782.5,1054.2,780.3,1055.4,778.9z"/>
	<path  class="st7" d="M1079.7,768.9c0.7,1.2,0,3.1-2.1,5.4c-2,2.3-5.2,4.7-8.8,6.7
		c-7.4,4.2-14.5,5.6-15.9,3.1c-0.7-1.2,0-3.1,2.1-5.4c2-2.3,5.2-4.7,8.8-6.8C1071.2,767.9,1078.3,766.5,1079.7,768.9z"/>
	<path  class="st7" d="M1047.8,758.5c2.7-0.6,6.2,4.7,7.8,11.8c0.8,3.4,0.9,6.8,0.5,9.4
		c-0.4,2.6-1.4,4.3-2.7,4.5c-2.7,0.6-6.2-4.7-7.8-11.8c-0.8-3.4-1-6.8-0.6-9.4C1045.5,760.4,1046.5,758.8,1047.8,758.5z"/>
	<path  class="st7" d="M1062.2,765.7c1,0.5,1.4,2,1.2,4.1c-0.2,2.1-1.1,4.7-2.4,7.1c-2.7,5.1-6.5,8.4-8.6,7.3
		c-1-0.5-1.4-2-1.2-4.1c0.2-2.1,1.1-4.7,2.4-7.1C1056.3,767.9,1060.2,764.7,1062.2,765.7z"/>
	<rect x="1092.5" y="250.5"  class="st3" width="10" height="200"/>
	<path  class="st4" d="M1097.5,250.5v200"/>
</g>


</svg>
