<?xml version="1.0" encoding="utf-8"?>
<?xml-stylesheet type="text/css" href="../css/Map.css"?>
<!-- Generator: Adobe Illustrator 22.0.1, SVG Export Plug-In . SVG Version: 6.00 Build 0)  -->
<svg version="1.1" id="Слой_1" xmlns="http://www.w3.org/2000/svg" xmlns:xlink="http://www.w3.org/1999/xlink" x="0px" y="0px"
	 viewBox="0 0 1056 833" style="enable-background:new 0 0 1056 833;" xml:space="preserve">
<polyline id="Kitchen" class="st1" points="301,596 301,571 1,571 1,831 301,831 301,674.5 "/>
<polyline id="Secondbedroom" class="st1" points="619.4,595 619.4,571.4 1056.3,571.4 1056.3,830.3 619.4,830.3 619.4,674.3 "/>
<g id="Firstbedroom">
	<polyline class="st1" points="992.3,170.5 1055.5,170.5 1055.5,570.5 655.5,570.5 655.5,381.7 	"/>
	<polyline class="st1" points="655.5,287.7 655.5,170.5 913,170.5 	"/>
</g>
<polyline id="Wardrobe" class="st1" points="913,169.6 696.5,169.6 696.5,0.5 1056.5,0.5 1056.5,169.6 992.3,169.6 "/>
<polyline id="Entrance" class="st1" points="470.5,170.5 456.5,170.5 456.5,0.5 696.5,0.5 696.5,170.5 655.5,170.5 "/>
<polyline id="Livingroom" class="st1" points="470.5,384 470.5,570.5 0.5,570.5 0.5,170.5 470.5,170.5 470.5,288 "/>
<polyline id="WC" class="st1" points="382.3,680.5 401.5,680.5 401.5,830.5 301.5,830.5 301.5,680.5 317.7,680.5 "/>
<polyline id="Bathroom" class="st1" points="574.3,680.5 619.1,680.5 619.1,830.5 400.3,830.5 400.3,680.5 503,680.5 "/>
<line id="Entrance-way" class="road" x1="546" y1="145" x2="546" y2="339"/>
<line id="Firstbedroom-way" class="road" x1="546" y1="338" x2="719" y2="338"/>
<line id="Livingroom-way" class="road" x1="546" y1="338" x2="410" y2="338"/>
<line id="Entrance-Livingroom-Firstbedroom-Secondbedroom-Bathroom-WC-Kitchen" class="road" x1="546" y1="340" x2="546" y2="633"/>
<line id="Bathroom-way" class="road" x1="546" y1="632" x2="546" y2="723"/>
<line id="Secondbedroom-way" class="road" x1="546" y1="632" x2="669" y2="632"/>
<line id="Kitchen-WC-way-Bathroom" class="road" x1="546" y1="632" x2="358" y2="632"/>
<line id="WC-way" class="road" x1="358" y1="632" x2="358" y2="718"/>
<line id="Kitchen-way" class="road" x1="358" y1="632" x2="245" y2="632"/>
<line id="Firstbedroom-Wardrobe" class="road" x1="719" y1="338" x2="953" y2="338"/>
<line id="Wardrobe-way" class="road" x1="953" y1="338" x2="953" y2="121"/>
<text transform="matrix(1 0 0 1 53.4854 206.4814)"><tspan x="0" y="0" class="st7 st8">Livingroom </tspan><tspan x="0" y="14.4" class="st7 st8">Гостинная</tspan></text>
<text transform="matrix(1 0 0 1 499 40)"><tspan x="0" y="0" class="st7 st8">Entrance </tspan><tspan x="0" y="14.4" class="st7 st8">Прихожая</tspan></text>
<text transform="matrix(1 0 0 1 746 32)"><tspan x="0" y="0" class="st7 st8">Wardrobe </tspan><tspan x="0" y="14.4" class="st7 st8">Гардероб</tspan></text>
<text transform="matrix(1 0 0 1 878 422)"><tspan x="0" y="0" class="st7 st8">Firstbedroom </tspan><tspan x="0" y="14.4" class="st7 st8">Первая спальня</tspan></text>
<text transform="matrix(1 0 0 1 35 587)"><tspan x="0" y="0" class="st7 st8">Kitchen </tspan><tspan x="0" y="14.4" class="st7 st8">Кухня</tspan></text>
<text transform="matrix(1 0 0 1 329 750)" class="st7 st8">WC</text>
<text transform="matrix(1 0 0 1 450 767)"><tspan x="0" y="0" class="st7 st8">Bathroom </tspan><tspan x="0" y="14.4" class="st7 st8">Ванная</tspan></text>
<text transform="matrix(1 0 0 1 863 716)"><tspan x="0" y="0" class="st7 st8">Secondbedroom </tspan><tspan x="0" y="14.4" class="st7 st8">Вторая спальня</tspan></text>
</svg>
